<svg xmlns="http://www.w3.org/2000/svg" xmlns:xlink="http://www.w3.org/1999/xlink" width="100" height="72" viewBox="0 0 100 72">
    <defs>
        <path id="7230nlb9ka" d="M93.768 40.56L100 46.8 75.074 71.76l-6.232-6.24.078-.079-6.42-6.429 6.232-6.24 6.419 6.429L93.768 40.56zM74.78 0c8.303 0 12.94 4.476 13.071 12.588l.003.355V34.32h-9.815v-8.836H9.815v25.192c0 2.948 1.417 4.343 4.15 4.42l.245.004 45.165-.001v9.799h-46.3C4.77 64.898.134 60.422.003 52.275L0 51.92V12.943C0 4.726 4.519.133 12.715.003L13.074 0H74.78zM28.418 35.32c2.053 0 3.49 1.366 3.584 3.307l.005.202v6.764c0 1.98-1.369 3.412-3.379 3.506l-.21.004h-8.972c-2.091 0-3.53-1.37-3.621-3.313l-.005-.197V38.83c0-1.981 1.372-3.415 3.419-3.505l.207-.005h8.972zm45.19-25.558H14.21c-2.81 0-4.308 1.311-4.39 4.202l-.005.259v2.194H78.04v-2.194c0-3.071-1.539-4.46-4.432-4.46z"/>
    </defs>
    <g fill="none" fill-rule="evenodd">
        <g>
            <g>
                <g transform="translate(-138.000000, -352.000000) translate(63.000000, 281.000000) translate(75.000000, 71.000000)">
                    <mask id="31pdyjflyb" fill="#fff">
                        <use xlink:href="#7230nlb9ka"/>
                    </mask>
                    <use fill="#FFF" fill-rule="nonzero" xlink:href="#7230nlb9ka"/>
                    <path fill="#FFF" d="M0 0H100V72H0z" mask="url(#31pdyjflyb)"/>
                </g>
            </g>
        </g>
    </g>
</svg>
